<svg xmlns="http://www.w3.org/2000/svg" width="40" height="40" viewBox="0 0 40 40">
    <circle cx="20" cy="20" r="18" fill="#2D8CFF"/>
    <circle cx="20" cy="20" r="18" fill="none" stroke="#FFFFFF" stroke-opacity="0.25"/>

    <!-- ears -->
    <path d="M14 18 L12 10 L18 14 Z" fill="#FF8A00"/>
    <path d="M26 18 L28 10 L22 14 Z" fill="#FF8A00"/>
    <path d="M14.4 17.2 L13.0 12.2 L16.8 14.6 Z" fill="#0B1E3A"/>
    <path d="M25.6 17.2 L27.0 12.2 L23.2 14.6 Z" fill="#0B1E3A"/>

    <!-- head -->
    <path d="M12 22c0-6 4-11 8-11s8 5 8 11c0 5-3 9-8 9s-8-4-8-9z" fill="#FF8A00"/>
    <!-- face -->
    <path d="M15 24c1-3 3-5 5-5s4 2 5 5c-2 3-4 4-5 4s-3-1-5-4z" fill="#FFFFFF"/>
    <!-- eyes -->
    <circle cx="17.5" cy="22" r="1.2" fill="#0B0F18"/>
    <circle cx="22.5" cy="22" r="1.2" fill="#0B0F18"/>
    <!-- nose -->
    <circle cx="20" cy="24.2" r="0.9" fill="#0B0F18"/>

    <!-- laptop -->
    <rect x="11" y="25" width="18" height="9" rx="2" fill="#0B0F18"/>
    <rect x="12.5" y="26.5" width="15" height="6" rx="1.2" fill="#142033"/>
    <!-- chart bars -->
    <rect x="15" y="30" width="2" height="2.5" fill="#FFFFFF"/>
    <rect x="18" y="28.5" width="2" height="4" fill="#FFB000"/>
    <rect x="21" y="27" width="2" height="5.5" fill="#FFFFFF"/>
    <rect x="24" y="29" width="2" height="3.5" fill="#FFFFFF"/>

    <!-- paws -->
    <circle cx="16" cy="25" r="1.4" fill="#FF8A00"/>
    <circle cx="24" cy="25" r="1.4" fill="#FF8A00"/>
</svg>
